<?xml version="1.0" standalone="no"?>
<!DOCTYPE svg PUBLIC "-//W3C//DTD SVG 20010904//EN"
 "http://www.w3.org/TR/2001/REC-SVG-20010904/DTD/svg10.dtd">
<svg version="1.0" xmlns="http://www.w3.org/2000/svg"
 width="500.000000pt" height="500.000000pt" viewBox="0 0 500.000000 500.000000"
 preserveAspectRatio="xMidYMid meet">
<metadata>
Created by potrace 1.14, written by Peter Selinger 2001-2017
</metadata>
<g transform="translate(0.000000,500.000000) scale(0.100000,-0.100000)"
fill="#000000" stroke="none">
<path d="M330 4170 l-36 -5 0 -1630 c0 -896 4 -1632 8 -1635 11 -8 861 -6 873
2 7 4 10 187 10 537 0 352 3 531 10 532 33 4 288 3 295 -1 4 -3 25 -36 45 -75
21 -38 55 -103 76 -142 38 -71 63 -118 164 -308 26 -49 61 -115 78 -145 16
-30 52 -98 79 -150 27 -52 70 -131 94 -175 l45 -81 477 1 c411 1 477 3 474 15
-2 8 -59 116 -126 240 -68 124 -138 252 -156 285 -90 168 -177 327 -264 484
-25 46 -46 85 -46 87 0 2 -14 26 -30 55 -17 28 -30 52 -28 54 2 1 44 26 93 56
257 155 422 424 452 739 48 503 -139 896 -528 1109 -91 49 -279 114 -374 128
-16 2 -36 6 -44 9 -34 11 -278 16 -916 18 -379 0 -706 -1 -725 -4z m1261 -713
c80 -6 207 -48 263 -87 52 -35 111 -119 126 -180 20 -74 20 -186 1 -255 -39
-140 -141 -220 -324 -254 -27 -5 -144 -8 -260 -7 l-212 1 0 390 0 390 29 5
c33 6 279 4 377 -3z"/>
<path d="M3475 3647 l0 -292 -147 -1 c-80 -1 -150 -4 -156 -8 -5 -3 -9 -135
-9 -320 l0 -315 126 0 c69 0 140 0 157 -1 l30 0 0 -557 c-1 -681 2 -730 50
-865 84 -235 267 -369 574 -419 69 -11 318 -15 385 -5 22 3 58 8 80 10 69 9
248 55 255 67 4 5 1 36 -6 67 -7 31 -34 158 -59 282 -55 273 -55 273 -92 259
-15 -5 -64 -12 -109 -14 -66 -3 -89 0 -121 16 -70 34 -68 14 -71 617 l-3 542
128 1 c70 0 165 0 211 -1 73 -1 82 1 83 17 4 93 1 614 -3 619 -3 3 -99 5 -212
6 l-206 1 0 293 0 294 -442 0 -443 0 0 -293z"/>
</g>
</svg>
